<svg xmlns="http://www.w3.org/2000/svg" xmlns:xlink="http://www.w3.org/1999/xlink" viewBox="0 0 1924 653"><defs><style>.cls-1{fill:url(#Безымянный_градиент_16);}.cls-2{fill:#ff7892;}.cls-3{fill:#fff;}</style><radialGradient id="Безымянный_градиент_16" cx="1809" cy="48" r="2451.89" gradientTransform="translate(-2 33.22) scale(1 0.95)" gradientUnits="userSpaceOnUse"><stop offset="0" stop-color="#ffe6eb"/><stop offset="1" stop-color="#ff7892"/></radialGradient></defs><g id="Layer_2" data-name="Layer 2"><g id="Слой_2" data-name="Слой 2"><rect class="cls-1" width="1924" height="653"/><path class="cls-2" d="M391.72,561.22c-.35,19.71-52.2,60.57-97.34,91.78H0V402.22c25.74-5.27,60.16-2.34,82,39.26,0,0,70.9-35,120.68,45.18,0,0,37.63-28.8,63.46,8.39,0,0,66.86-21.43,83.89,47.82,0,0,30.78-16.67,41.22,15.21A9.18,9.18,0,0,1,391.72,561.22Z"/><path class="cls-2" d="M1921,439.89V625.82l-.06.09c-10.34,16.28-17.45,26.22-17.24,24.29.08-.73-4,.31-11.46,2.8h-514L1359,610.38a83.53,83.53,0,0,1,2.42-8.06c8.33-24,40.42-91.24,131.43-60.25,0,0,11.92-36.09,53.53-30,0,0,49.89-76,116.4-26.34,0,0,48.92-62.1,128.37-11.19,0,0,21.57-42.19,60.89-19.75C1852,454.75,1884.76,423.94,1921,439.89Z"/><path class="cls-2" d="M1325.68,617.47,1312.56,653H755.2l-4.58-64.14A95.08,95.08,0,0,1,761,595s41.58-70.28,118.82-67a159.6,159.6,0,0,1,17.84,12.65,47.25,47.25,0,0,1,10.77-9.22c10.38-6.62,27.74-12.45,49.86-.43,0,0,73.11-54,118.31,15.6,0,0,57.21-35.07,110.71,18.28a147.71,147.71,0,0,1,13.6,15.68s9.83-9.06,23.4-12.36c8.52,3.63,17.22,9.6,25.69,18.85,0,0,43-17,71,35A51.21,51.21,0,0,1,1325.68,617.47Z"/><path class="cls-3" d="M1921,605l-.06,20.91-.07,27.09H0V533.62c21.15-7.46,48.24-7.1,77.44,18.13C144.28,511.66,244,480,334,563c0,0,26-12,39,9a106.07,106.07,0,0,1,18.72-10.78c28.61-13.3,87.51-29,159.28,16.78,0,0,78-42,107,27,0,0,41.31-42.19,92.62-16.14A95.08,95.08,0,0,1,761,595s41.58-70.28,118.82-67l1.18,0a189.19,189.19,0,0,1,27.43,3.38C967.26,543.09,994,579,994,579s27-14,40,9c0,0,52-36,122-9a82.05,82.05,0,0,1,31.31-14.17,60.92,60.92,0,0,1,37,3.32c8.52,3.63,17.22,9.6,25.69,18.85,0,0,43-17,71,35a51.21,51.21,0,0,1,4.68-4.53c6.48-5.62,19.28-14.54,35.73-15.15A49.77,49.77,0,0,1,1382,606c35,14,35,35,35,35s20-64,82-48c0,0,93-138,248-11,0,0,21-15,35,6C1782,588,1876,527,1921,605Z"/></g></g></svg>