<svg xmlns="http://www.w3.org/2000/svg" width="666.432" height="758.312" viewBox="0 0 666.432 758.312">
  <g id="Слой_2" data-name="Слой 2">
    <g id="Слой_1-2" data-name="Слой 1">
      <polygon points="393.231 177.74 563.106 91.867 485.591 265.715 666.432 325.113 488.692 393.231 574.565 563.106 400.717 485.591 341.319 666.432 273.201 488.692 103.326 574.565 180.841 400.717 0 341.319 177.74 273.201 91.867 103.326 265.715 180.841 325.113 0 393.231 177.74" fill="#ffd385"/>
      <polygon points="363.318 222.323 449.509 178.753 410.18 266.96 501.935 297.098 411.753 331.66 455.324 417.851 367.116 378.522 336.978 470.278 302.417 380.095 216.225 423.666 255.555 335.458 163.799 305.32 253.981 270.759 210.411 184.567 298.618 223.897 328.756 132.141 363.318 222.323" fill="#fff"/>
      <path d="M245.705,747.309v-149s-52-27-51-63,21-47,46-44c0,0-5.716-44.741,29-56,37-12,44,16,44,16s17-41,58-27,22,55,22,55,47-16,56,22-16,77-49,88l7,167h-164Z" fill="#3f3f3f"/>
      <path d="M240.389,556.336c23.033.8,29.865-31.556,8.278-39.629a32.165,32.165,0,0,0-4.962-1.4c-25-5-30,12-30,16s3,24,26,25Z" fill="#ff8da8"/>
      <path d="M304.25,487.676c3.66-6.04,5.149-14.563-3.472-24.53a19.262,19.262,0,0,0-16.293-6.736c-7.526.708-16.359,5.084-15.78,21.9,0,0,.563,12.375,11.391,17.3C288.9,499.606,299.242,495.945,304.25,487.676Z" fill="#ff8da8"/>
      <path d="M365.115,489.6c-16.14,11.153-37.842-3.961-33.08-22.993q.28-1.127.67-2.3c6-18,23-24,31-20s20,22,6,41A19.21,19.21,0,0,1,365.115,489.6Z" fill="#ff8da8"/>
      <path d="M389.383,518.03c.021-9.168,4.107-22.182,26.322-24.721,0,0,24,1,14,26-6.676,16.69-21.82,14.661-31.15,11.468A13.478,13.478,0,0,1,389.383,518.03Z" fill="#ff8da8"/>
      <path d="M287.705,551.309s11-43,39-38,32,38,32,38,27,10,27,23-29,23-62,22S240.705,589.309,287.705,551.309Z" fill="#ff8da8"/>
      <g>
        <path d="M256.416,335.108S255.19,376.8,329.2,310.9c1.7-1.513,3.32-3.1,4.887-4.746,13.6-14.325,75.108-81.605,33.735-84.959,0,0,48.82-15.022,8.763,50.7S241.394,388.935,256.416,335.108Z" fill="#2fa827"/>
        <path d="M363.471,282.758c-14.851,20.394-34.306,38.72-52.916,51.987a8.216,8.216,0,0,0-3.441,6.7v38.621a8.247,8.247,0,0,0,8.247,8.247h33.578a8.247,8.247,0,0,0,8.247-8.247v-42.34a8.247,8.247,0,0,1,8.247-8.247h42.34a8.247,8.247,0,0,0,8.247-8.248V287.65a8.247,8.247,0,0,0-8.247-8.247H370.105A8.2,8.2,0,0,0,363.471,282.758Z" fill="#2fa827"/>
        <path d="M332.165,298.031a398.136,398.136,0,0,0,26.384-30.894,5.638,5.638,0,0,0,1.14-3.408V219.942a5.633,5.633,0,0,0-5.633-5.633H315.251a5.634,5.634,0,0,0-5.634,5.633V267.51a5.633,5.633,0,0,1-5.633,5.634H256.416a5.633,5.633,0,0,0-5.633,5.633v38.805a5.633,5.633,0,0,0,5.633,5.634h44.217a5.6,5.6,0,0,0,3.353-1.1c6.442-4.81,13.7-10.738,21.911-18.011Q329.164,301.206,332.165,298.031Z" fill="#77d51e"/>
        <path d="M293.284,265.3S270.755,279.139,250.4,249.96c0,0,13.3-13.046,32.569-7.59,0,0-10.039-6.245,1.086-21.507,0,0,29.778,8.631,16.329,37.044,0,0-2.281-13.854-8.8-20.5,0,0,3.8,16.284,3.305,21.549,0,0-13.983-7.161-23.233-4.176C271.649,254.776,290.47,261.105,293.284,265.3Z" fill="#2fa827"/>
        <path d="M369.542,337.926s20.872-16.227,44.313,10.538c0,0-11.786,14.428-31.537,11.123,0,0,10.665,5.1,1.284,21.5,0,0-30.546-5.306-20.3-35.025,0,0,3.791,13.52,11,19.412,0,0-5.562-15.768-5.654-21.055,0,0,14.686,5.581,23.552,1.6C392.2,346.013,372.8,341.79,369.542,337.926Z" fill="#77d51e"/>
      </g>
      <polygon points="615.557 224.131 625.544 257.128 563.597 257.867 501.65 258.606 553.61 224.87 605.57 191.134 615.557 224.131" fill="#ffd385"/>
      <polygon points="393.231 177.74 563.106 91.867 485.591 265.715 666.432 325.113 488.692 393.231 574.565 563.106 400.717 485.591 341.319 666.432 273.201 488.692 103.326 574.565 180.841 400.717 0 341.319 177.74 273.201 91.867 103.326 265.715 180.841 325.113 0 393.231 177.74" fill="#ffd385"/>
      <polygon points="363.318 222.323 449.509 178.753 410.18 266.96 501.935 297.098 411.753 331.66 455.324 417.851 367.116 378.522 336.978 470.278 302.417 380.095 216.225 423.666 255.555 335.458 163.799 305.32 253.981 270.759 210.411 184.567 298.618 223.897 328.756 132.141 363.318 222.323" fill="#fff"/>
      <path d="M245.705,747.309v-149s-52-27-51-63,21-47,46-44c0,0-5.716-44.741,29-56,37-12,44,16,44,16s17-41,58-27,22,55,22,55,47-16,56,22-16,77-49,88l7,167h-164Z" fill="#3f3f3f"/>
      <path d="M240.389,556.336c23.033.8,29.865-31.556,8.278-39.629a32.165,32.165,0,0,0-4.962-1.4c-25-5-30,12-30,16s3,24,26,25Z" fill="#ff8da8"/>
      <path d="M304.25,487.676c3.66-6.04,5.149-14.563-3.472-24.53a19.262,19.262,0,0,0-16.293-6.736c-7.526.708-16.359,5.084-15.78,21.9,0,0,.563,12.375,11.391,17.3C288.9,499.606,299.242,495.945,304.25,487.676Z" fill="#ff8da8"/>
      <path d="M365.115,489.6c-16.14,11.153-37.842-3.961-33.08-22.993q.28-1.127.67-2.3c6-18,23-24,31-20s20,22,6,41A19.21,19.21,0,0,1,365.115,489.6Z" fill="#ff8da8"/>
      <path d="M389.383,518.03c.021-9.168,4.107-22.182,26.322-24.721,0,0,24,1,14,26-6.676,16.69-21.82,14.661-31.15,11.468A13.478,13.478,0,0,1,389.383,518.03Z" fill="#ff8da8"/>
      <path d="M287.705,551.309s11-43,39-38,32,38,32,38,27,10,27,23-29,23-62,22S240.705,589.309,287.705,551.309Z" fill="#ff8da8"/>
      <polygon points="64.929 456.942 74.054 487.063 121.481 456.253 168.908 425.443 112.356 426.132 55.804 426.82 64.929 456.942" fill="#ffd385"/>
      <polygon points="577.938 443.565 566.362 467.038 531.635 435.32 496.908 403.603 543.211 411.847 589.514 420.091 577.938 443.565" fill="#ffd385"/>
    </g>
    <g id="Слой_3" data-name="Слой 3">
      <path d="M189.428,383.308S170.143,294.6,219.319,257.955c0,0,3.857-68.462,26.035-66.533s58.82,34.713,58.82,34.713H360.1s31.82-48.213,59.784-43.392,18.32,73.284,18.32,73.284S481.6,291.7,480.631,366.915L400.6,476.84,243.426,441.163Z" fill="#3f3f3f"/>
      <path d="M198.579,758.312a224.134,224.134,0,0,1-15.9-83.8c0-103.313,67.347-187.064,150.423-187.064S483.524,571.2,483.524,674.511a224.123,224.123,0,0,1-15.9,83.8" fill="#3f3f3f"/>
    </g>
    <g id="Слой_4" data-name="Слой 4">
      <circle cx="257.889" cy="412.235" r="23.142" fill="#ff8da8"/>
      <circle cx="396.742" cy="417.056" r="23.142" fill="#ff8da8"/>
      <g>
        <path d="M298.87,393.432s4.821-43.391-22.178-45.32-28.927,22.178-28.927,22.178,3.857,22.178,27.963,25.071S298.87,393.432,298.87,393.432Z" fill="#ffd385"/>
        <path d="M298.87,393.432A80.45,80.45,0,0,0,297.4,369.19a20.225,20.225,0,0,0-31.936,23.381,34.869,34.869,0,0,0,10.261,2.79C299.834,398.254,298.87,393.432,298.87,393.432Z"/>
      </g>
      <g>
        <path d="M361.88,393.432s-4.821-43.391,22.178-45.32,28.928,22.178,28.928,22.178-3.857,22.178-27.964,25.071S361.88,393.432,361.88,393.432Z" fill="#ffd385"/>
        <path d="M361.88,393.432a80.431,80.431,0,0,1,1.468-24.242,20.225,20.225,0,0,1,31.935,23.381,34.86,34.86,0,0,1-10.261,2.79C360.916,398.254,361.88,393.432,361.88,393.432Z"/>
      </g>
      <path d="M438.2,256.027s8.258-58.658-12.695-71.2c-21.769,13.314-34.84,48.727-32.624,49.023,25.174,3.356,40.12,18.392,46.118,22.874C438.488,256.26,438.2,256.027,438.2,256.027Z" fill="#ff8da8"/>
      <path d="M242.394,191.594c-17.7,3.7-22.261,55.032-22.968,64.767,5.068-2.907,27.613-15.031,53.891-16.727C273.317,239.634,262.2,210.749,242.394,191.594Z" fill="#ff8da8"/>
      <path d="M329.244,407.414s-13.5-8.678,0-8.678S329.244,407.414,329.244,407.414Z" fill="#ff8da8"/>
    </g>
    <g id="Слой_5" data-name="Слой 5">
      <path d="M334.065,459.483s68.462-72.318,162.959-98.353l18.509,18.131L324.423,500.946l-170-100.374,21.5-18.229S281.031,402.593,334.065,459.483Z" fill="#fff"/>
      <polygon points="151.822 399.7 321.53 456.591 321.53 660.048 151.822 599.3 151.822 399.7" fill="#ea7194"/>
      <polygon points="352.386 456.591 352.386 660.048 519.201 585.8 519.201 377.522 352.386 456.591" fill="#ea7194"/>
      <rect x="321.53" y="456.591" width="30.856" height="203.457" fill="#ff8da8"/>
      <ellipse cx="144.59" cy="523.606" rx="30.374" ry="35.195" fill="#3f3f3f"/>
      <ellipse cx="517.755" cy="504.321" rx="30.374" ry="35.195" fill="#3f3f3f"/>
    </g>
  </g>
</svg>
