<svg xmlns="http://www.w3.org/2000/svg" viewBox="0 0 31.09 26.96"><defs><style>.cls-1{fill:none;stroke:gray;stroke-linecap:round;stroke-linejoin:round;stroke-width:2px;}</style></defs><g id="Layer_2" data-name="Layer 2"><g id="Слой_2" data-name="Слой 2"><path class="cls-1" d="M1,1H7.2"/><path class="cls-1" d="M7.51,1.14l4.55,17.79"/><path class="cls-1" d="M12.37,19H28.92"/><path class="cls-1" d="M15,26a3.1,3.1,0,1,0-3.1-3.1A3.1,3.1,0,0,0,15,26Z"/><path class="cls-1" d="M26.85,26a3.1,3.1,0,1,0-3.1-3.1A3.1,3.1,0,0,0,26.85,26Z"/><path class="cls-1" d="M27,14.44H12.69a1.28,1.28,0,0,1-1.29-1L9.52,6.82a1.33,1.33,0,0,1,1.29-1.68H28.73A1.32,1.32,0,0,1,30,6.82l-1.88,6.63C28.14,14.05,27.64,14.44,27,14.44Z"/></g></g></svg>