<svg xmlns="http://www.w3.org/2000/svg" viewBox="0 0 249.53 249.53"><defs><style>.cls-1{fill:#77d51e;}.cls-2{fill:#fff;}</style></defs><g id="Layer_2" data-name="Layer 2"><g id="Слой_2" data-name="Слой 2"><path class="cls-1" d="M249.53,124.76A124.68,124.68,0,1,1,161.18,5.41,124.78,124.78,0,0,1,249.53,124.76Z"/><path class="cls-2" d="M199.76,98.87a84.76,84.76,0,0,1-165.3,26.4l16.2-6a67.94,67.94,0,1,0,127-47.43L193.15,66A84.51,84.51,0,0,1,199.76,98.87Z"/><path class="cls-2" d="M100.16,100.75,80.59,149A59.87,59.87,0,0,1,57,116.85Z"/><path class="cls-2" d="M111,105.59l19.62,51.56a59.94,59.94,0,0,1-41.5-3.32Z"/><path class="cls-2" d="M120.39,101.56l48.2,23.3a60.07,60.07,0,0,1-27.09,28Z"/><path class="cls-2" d="M174.2,99.54a59.22,59.22,0,0,1-1.58,13.68L123.49,92l45.49-17A59.74,59.74,0,0,1,174.2,99.54Z"/></g></g></svg>