<svg xmlns="http://www.w3.org/2000/svg" viewBox="0 0 299.9 87"><defs><style>.cls-1,.cls-3{fill:#2fa827;}.cls-2{fill:#77d51e;}.cls-3{font-size:36px;font-family:TrebuchetMS-Bold, Trebuchet MS;font-weight:700;}</style></defs><g id="Layer_2" data-name="Layer 2"><g id="Слой_2" data-name="Слой 2"><path class="cls-1" d="M3,60.4S2.4,81.25,39.4,48.29c.85-.75,1.66-1.54,2.45-2.37,6.8-7.16,37.55-40.8,16.86-42.48,0,0,24.41-7.51,4.39,25.35S-4.5,87.31,3,60.4Z"/><path class="cls-1" d="M56.54,34.22a119.81,119.81,0,0,1-26.46,26,4.11,4.11,0,0,0-1.72,3.35V82.88A4.12,4.12,0,0,0,32.48,87H49.27a4.12,4.12,0,0,0,4.12-4.12V61.71a4.13,4.13,0,0,1,4.13-4.13H78.69a4.11,4.11,0,0,0,4.12-4.12V36.67a4.11,4.11,0,0,0-4.12-4.12H59.85A4.1,4.1,0,0,0,56.54,34.22Z"/><path class="cls-2" d="M40.88,41.86a198.13,198.13,0,0,0,13.2-15.45,2.83,2.83,0,0,0,.57-1.7V2.82A2.82,2.82,0,0,0,51.83,0H32.43a2.82,2.82,0,0,0-2.82,2.82V26.6a2.82,2.82,0,0,1-2.82,2.82H3A2.81,2.81,0,0,0,.19,32.23V51.64A2.81,2.81,0,0,0,3,54.45H25.12a2.79,2.79,0,0,0,1.67-.55c3.23-2.4,6.86-5.37,11-9Q39.39,43.45,40.88,41.86Z"/><path class="cls-1" d="M21.44,25.5S10.18,32.41,0,17.83A17.47,17.47,0,0,1,16.28,14s-5-3.12.55-10.75c0,0,14.89,4.31,8.16,18.52,0,0-1.14-6.93-4.4-10.25,0,0,1.9,8.14,1.65,10.77,0,0-7-3.58-11.61-2.09C10.63,20.23,20,23.4,21.44,25.5Z"/><path class="cls-2" d="M59.57,61.81S70,53.7,81.73,67.08A17.49,17.49,0,0,1,66,72.64s5.33,2.55.64,10.75c0,0-15.27-2.66-10.15-17.52,0,0,1.9,6.76,5.5,9.71,0,0-2.78-7.88-2.82-10.53,0,0,7.34,2.79,11.77.8C70.9,65.85,61.2,63.74,59.57,61.81Z"/><text class="cls-3" transform="translate(95.31 56)">Фортуна-ЕК</text></g></g></svg>