<svg xmlns="http://www.w3.org/2000/svg" width="666.432" height="756.309" viewBox="0 0 666.432 756.309">
  <g id="Слой_2" data-name="Слой 2">
    <g id="Слой_1-2" data-name="Слой 1">
      <g>
        <polygon points="393.231 177.74 563.106 91.867 485.591 265.715 666.432 325.113 488.692 393.231 574.565 563.106 400.717 485.591 341.319 666.432 273.201 488.692 103.326 574.565 180.841 400.717 0 341.319 177.74 273.201 91.867 103.326 265.715 180.841 325.113 0 393.231 177.74" fill="#ffd385"/>
        <polygon points="363.318 222.323 449.509 178.753 410.18 266.96 501.935 297.098 411.753 331.66 455.324 417.851 367.116 378.522 336.978 470.278 302.417 380.095 216.225 423.666 255.555 335.458 163.799 305.32 253.981 270.759 210.411 184.567 298.618 223.897 328.756 132.141 363.318 222.323" fill="#fff"/>
        <path d="M245.705,747.309v-149s-52-27-51-63,21-47,46-44c0,0-5.716-44.741,29-56,37-12,44,16,44,16s17-41,58-27,22,55,22,55,47-16,56,22-16,77-49,88l7,167h-164Z" fill="#3f3f3f"/>
        <path d="M240.389,556.336c23.033.8,29.865-31.556,8.278-39.629a32.165,32.165,0,0,0-4.962-1.4c-25-5-30,12-30,16s3,24,26,25Z" fill="#ff8da8"/>
        <path d="M304.25,487.676c3.66-6.04,5.149-14.563-3.472-24.53a19.262,19.262,0,0,0-16.293-6.736c-7.526.708-16.359,5.084-15.78,21.9,0,0,.563,12.375,11.391,17.3C288.9,499.606,299.242,495.945,304.25,487.676Z" fill="#ff8da8"/>
        <path d="M365.115,489.6c-16.14,11.153-37.842-3.961-33.08-22.993q.28-1.127.67-2.3c6-18,23-24,31-20s20,22,6,41A19.21,19.21,0,0,1,365.115,489.6Z" fill="#ff8da8"/>
        <path d="M389.383,518.03c.021-9.168,4.107-22.182,26.322-24.721,0,0,24,1,14,26-6.676,16.69-21.82,14.661-31.15,11.468A13.478,13.478,0,0,1,389.383,518.03Z" fill="#ff8da8"/>
        <path d="M287.705,551.309s11-43,39-38,32,38,32,38,27,10,27,23-29,23-62,22S240.705,589.309,287.705,551.309Z" fill="#ff8da8"/>
        <g>
          <path d="M256.416,335.108S255.19,376.8,329.2,310.9c1.7-1.513,3.32-3.1,4.887-4.746,13.6-14.325,75.108-81.605,33.735-84.959,0,0,48.82-15.022,8.763,50.7S241.394,388.935,256.416,335.108Z" fill="#2fa827"/>
          <path d="M363.471,282.758c-14.851,20.394-34.306,38.72-52.916,51.987a8.216,8.216,0,0,0-3.441,6.7v38.621a8.247,8.247,0,0,0,8.247,8.247h33.578a8.247,8.247,0,0,0,8.247-8.247v-42.34a8.247,8.247,0,0,1,8.247-8.247h42.34a8.247,8.247,0,0,0,8.247-8.248V287.65a8.247,8.247,0,0,0-8.247-8.247H370.105A8.2,8.2,0,0,0,363.471,282.758Z" fill="#2fa827"/>
          <path d="M332.165,298.031a398.136,398.136,0,0,0,26.384-30.894,5.638,5.638,0,0,0,1.14-3.408V219.942a5.633,5.633,0,0,0-5.633-5.633H315.251a5.634,5.634,0,0,0-5.634,5.633V267.51a5.633,5.633,0,0,1-5.633,5.634H256.416a5.633,5.633,0,0,0-5.633,5.633v38.805a5.633,5.633,0,0,0,5.633,5.634h44.217a5.6,5.6,0,0,0,3.353-1.1c6.442-4.81,13.7-10.738,21.911-18.011Q329.164,301.206,332.165,298.031Z" fill="#77d51e"/>
          <path d="M293.284,265.3S270.755,279.139,250.4,249.96c0,0,13.3-13.046,32.569-7.59,0,0-10.039-6.245,1.086-21.507,0,0,29.778,8.631,16.329,37.044,0,0-2.281-13.854-8.8-20.5,0,0,3.8,16.284,3.305,21.549,0,0-13.983-7.161-23.233-4.176C271.649,254.776,290.47,261.105,293.284,265.3Z" fill="#2fa827"/>
          <path d="M369.542,337.926s20.872-16.227,44.313,10.538c0,0-11.786,14.428-31.537,11.123,0,0,10.665,5.1,1.284,21.5,0,0-30.546-5.306-20.3-35.025,0,0,3.791,13.52,11,19.412,0,0-5.562-15.768-5.654-21.055,0,0,14.686,5.581,23.552,1.6C392.2,346.013,372.8,341.79,369.542,337.926Z" fill="#77d51e"/>
        </g>
        <polygon points="77.701 477.404 97.293 502.321 130.503 456.047 163.714 409.773 110.912 431.13 58.109 452.488 77.701 477.404" fill="#ffd385"/>
        <polygon points="554.278 440.715 540.965 457.647 518.398 426.202 495.83 394.758 531.711 409.271 567.591 423.784 554.278 440.715" fill="#ffd385"/>
        <polygon points="608.194 221.977 618.85 254.764 556.931 256.762 495.012 258.761 546.275 223.975 597.538 189.189 608.194 221.977" fill="#ffd385"/>
      </g>
      <g>
        <polygon points="393.231 177.74 563.106 91.867 485.591 265.715 666.432 325.113 488.692 393.231 574.565 563.106 400.717 485.591 341.319 666.432 273.201 488.692 103.326 574.565 180.841 400.717 0 341.319 177.74 273.201 91.867 103.326 265.715 180.841 325.113 0 393.231 177.74" fill="#ffd385"/>
        <polygon points="363.318 222.323 449.509 178.753 410.18 266.96 501.935 297.098 411.753 331.66 455.324 417.851 367.116 378.522 336.978 470.278 302.417 380.095 216.225 423.666 255.555 335.458 163.799 305.32 253.981 270.759 210.411 184.567 298.618 223.897 328.756 132.141 363.318 222.323" fill="#fff"/>
        <path d="M245.705,747.309v-149s-52-27-51-63,21-47,46-44c0,0-5.716-44.741,29-56,37-12,44,16,44,16s17-41,58-27,22,55,22,55,47-16,56,22-16,77-49,88l7,167h-164Z" fill="#3f3f3f"/>
        <path d="M240.389,556.336c23.033.8,29.865-31.556,8.278-39.629a32.165,32.165,0,0,0-4.962-1.4c-25-5-30,12-30,16s3,24,26,25Z" fill="#ff8da8"/>
        <path d="M304.25,487.676c3.66-6.04,5.149-14.563-3.472-24.53a19.262,19.262,0,0,0-16.293-6.736c-7.526.708-16.359,5.084-15.78,21.9,0,0,.563,12.375,11.391,17.3C288.9,499.606,299.242,495.945,304.25,487.676Z" fill="#ff8da8"/>
        <path d="M365.115,489.6c-16.14,11.153-37.842-3.961-33.08-22.993q.28-1.127.67-2.3c6-18,23-24,31-20s20,22,6,41A19.21,19.21,0,0,1,365.115,489.6Z" fill="#ff8da8"/>
        <path d="M389.383,518.03c.021-9.168,4.107-22.182,26.322-24.721,0,0,24,1,14,26-6.676,16.69-21.82,14.661-31.15,11.468A13.478,13.478,0,0,1,389.383,518.03Z" fill="#ff8da8"/>
        <path d="M287.705,551.309s11-43,39-38,32,38,32,38,27,10,27,23-29,23-62,22S240.705,589.309,287.705,551.309Z" fill="#ff8da8"/>
        <g>
          <path d="M256.416,335.108S255.19,376.8,329.2,310.9c1.7-1.513,3.32-3.1,4.887-4.746,13.6-14.325,75.108-81.605,33.735-84.959,0,0,48.82-15.022,8.763,50.7S241.394,388.935,256.416,335.108Z" fill="#2fa827"/>
          <path d="M363.471,282.758c-14.851,20.394-34.306,38.72-52.916,51.987a8.216,8.216,0,0,0-3.441,6.7v38.621a8.247,8.247,0,0,0,8.247,8.247h33.578a8.247,8.247,0,0,0,8.247-8.247v-42.34a8.247,8.247,0,0,1,8.247-8.247h42.34a8.247,8.247,0,0,0,8.247-8.248V287.65a8.247,8.247,0,0,0-8.247-8.247H370.105A8.2,8.2,0,0,0,363.471,282.758Z" fill="#2fa827"/>
          <path d="M332.165,298.031a398.136,398.136,0,0,0,26.384-30.894,5.638,5.638,0,0,0,1.14-3.408V219.942a5.633,5.633,0,0,0-5.633-5.633H315.251a5.634,5.634,0,0,0-5.634,5.633V267.51a5.633,5.633,0,0,1-5.633,5.634H256.416a5.633,5.633,0,0,0-5.633,5.633v38.805a5.633,5.633,0,0,0,5.633,5.634h44.217a5.6,5.6,0,0,0,3.353-1.1c6.442-4.81,13.7-10.738,21.911-18.011Q329.164,301.206,332.165,298.031Z" fill="#77d51e"/>
          <path d="M293.284,265.3S270.755,279.139,250.4,249.96c0,0,13.3-13.046,32.569-7.59,0,0-10.039-6.245,1.086-21.507,0,0,29.778,8.631,16.329,37.044,0,0-2.281-13.854-8.8-20.5,0,0,3.8,16.284,3.305,21.549,0,0-13.983-7.161-23.233-4.176C271.649,254.776,290.47,261.105,293.284,265.3Z" fill="#2fa827"/>
          <path d="M369.542,337.926s20.872-16.227,44.313,10.538c0,0-11.786,14.428-31.537,11.123,0,0,10.665,5.1,1.284,21.5,0,0-30.546-5.306-20.3-35.025,0,0,3.791,13.52,11,19.412,0,0-5.562-15.768-5.654-21.055,0,0,14.686,5.581,23.552,1.6C392.2,346.013,372.8,341.79,369.542,337.926Z" fill="#77d51e"/>
        </g>
        <polygon points="77.701 477.404 97.293 502.321 130.503 456.047 163.714 409.773 110.912 431.13 58.109 452.488 77.701 477.404" fill="#ffd385"/>
        <polygon points="554.278 440.715 540.965 457.647 518.398 426.202 495.83 394.758 531.711 409.271 567.591 423.784 554.278 440.715" fill="#ffd385"/>
        <polygon points="608.194 221.977 618.85 254.764 556.931 256.762 495.012 258.761 546.275 223.975 597.538 189.189 608.194 221.977" fill="#ffd385"/>
      </g>
    </g>
  </g>
</svg>
