<svg xmlns="http://www.w3.org/2000/svg" viewBox="0 0 249.53 249.53"><defs><style>.cls-1{fill:#77d51e;}.cls-2,.cls-3{fill:#fff;stroke:#fff;}.cls-2{stroke-linecap:round;stroke-linejoin:round;stroke-width:2.49px;}.cls-3{stroke-miterlimit:10;}</style></defs><g id="Layer_2" data-name="Layer 2"><g id="Слой_2" data-name="Слой 2"><path class="cls-1" d="M249.53,124.76A124.68,124.68,0,1,1,161.18,5.41,124.78,124.78,0,0,1,249.53,124.76Z"/><path id="path4762" class="cls-2" d="M30.07,161.7s41.09,18.08,94.73,18.08,93.83-18.15,93.83-18.15-39.27,13.72-93.85,13.72S30.07,161.7,30.07,161.7Zm0-73.67S71.16,70,124.8,70,218.63,88.1,218.63,88.1s-39.27-13.72-93.85-13.72S30.07,88,30.07,88Z"/><path id="path4790" class="cls-3" d="M198.36,127.6l-6.78-12.91-6.87,12.91Zm10,9.93H203.5l-3.05-5.92H182.62l-3.05,5.92h-4.85L188.77,111h5.54l14,26.55Zm-49.45-4a8.82,8.82,0,0,0,6.54-2.57,8.94,8.94,0,0,0,2.56-6.61,9.13,9.13,0,0,0-2.74-6.91,10,10,0,0,0-7.21-2.63H145.23v18.72ZM157.63,111q6.93,0,11,3.69a12.69,12.69,0,0,1,4,9.88,12.08,12.08,0,0,1-4.29,9.46,14.45,14.45,0,0,1-9.91,3.52H140.83V111Zm-32.1,16.62-6.79-12.91-6.87,12.91Zm10,9.93h-4.85l-3-5.92H109.78l-3,5.92h-4.85L115.93,111h5.54ZM104.34,115H91.73v22.54H87.34V115H74.54v-4h29.8v4Zm-37.52,2.17a26.33,26.33,0,0,0-12.07-3,16.28,16.28,0,0,0-6.26.95c-1.44.64-2.17,1.52-2.17,2.65s.78,2,2.32,2.58a21.84,21.84,0,0,0,5.41.81q5.52.36,7.29.59c3.34.44,5.8,1.26,7.4,2.46a6.05,6.05,0,0,1,2.39,5.12,7.29,7.29,0,0,1-3.75,6.55q-3.76,2.32-10.79,2.32-10.2,0-15.86-4.49l2.43-3.2a25.37,25.37,0,0,0,13.47,3.83A16.54,16.54,0,0,0,63.88,133c1.64-.84,2.47-2,2.47-3.43q0-2.53-3.24-3.38A69.92,69.92,0,0,0,54,125.3c-4.39-.3-7.47-.88-9.24-1.77a5.36,5.36,0,0,1-3.09-5.19,6.66,6.66,0,0,1,3.51-5.92q3.53-2.17,9.92-2.17,8.61,0,14.43,3.93l-2.69,3Z"/></g></g></svg>