<svg xmlns="http://www.w3.org/2000/svg" viewBox="0 0 249.53 249.53"><defs><style>.cls-1{fill:#77d51e;}.cls-2{fill:#fff;}.cls-3{fill:none;stroke:#fff;stroke-miterlimit:10;stroke-width:5px;}</style></defs><g id="Layer_2" data-name="Layer 2"><g id="Слой_2" data-name="Слой 2"><circle class="cls-1" cx="124.76" cy="124.76" r="124.76"/><path class="cls-2" d="M141.56,151.33,98.47,171.72l-.06,0-3,1.43h0A31.61,31.61,0,0,1,64.23,118.8L76,113.21l36.59-17.43Z"/><path class="cls-3" d="M198.41,104.92a31.54,31.54,0,0,1-13.49,25.9l-9.61,4.54L98.47,171.72l-.06,0-3,1.43h0A31.61,31.61,0,0,1,64.23,118.8L76,113.21l76.8-36.6.82-.41.12,0a31.27,31.27,0,0,1,13.09-2.84A31.61,31.61,0,0,1,198.41,104.92Z"/></g></g></svg>